<?xml version="1.0" standalone="no"?>
<!DOCTYPE svg PUBLIC "-//W3C//DTD SVG 20010904//EN"
 "http://www.w3.org/TR/2001/REC-SVG-20010904/DTD/svg10.dtd">
<svg version="1.0" xmlns="http://www.w3.org/2000/svg"
 width="1200.000000pt" height="1200.000000pt" viewBox="0 0 1200.000000 1200.000000"
 preserveAspectRatio="xMidYMid meet">

<g transform="translate(0.000000,1200.000000) scale(0.100000,-0.100000)"
fill="#000000" stroke="none">
<path d="M4018 9864 c-49 -15 -75 -37 -131 -114 -45 -61 -122 -99 -221 -110
-90 -11 -150 -35 -191 -79 -28 -31 -30 -38 -35 -136 -5 -97 -7 -106 -34 -134
-17 -18 -47 -34 -76 -41 -94 -22 -160 -111 -181 -241 -18 -109 -39 -137 -151
-191 -62 -31 -104 -58 -117 -77 -30 -42 -43 -129 -35 -240 6 -74 4 -95 -7
-102 -21 -13 -65 -11 -103 5 -27 11 -37 24 -50 63 -8 26 -18 67 -22 90 -6 40
-8 42 -33 37 -80 -19 -178 -70 -222 -116 -34 -35 -67 -56 -132 -84 -85 -35
-147 -85 -147 -119 0 -33 -28 -69 -91 -116 -69 -51 -119 -124 -119 -175 0 -14
-14 -30 -40 -48 -60 -40 -146 -131 -172 -184 -13 -26 -60 -83 -105 -127 -89
-88 -137 -170 -149 -254 -3 -25 -17 -78 -30 -118 -13 -39 -29 -107 -35 -150
-8 -58 -23 -102 -56 -168 -28 -57 -48 -113 -53 -150 -5 -33 -20 -98 -34 -144
-40 -128 -43 -178 -16 -260 20 -62 20 -71 7 -97 -46 -89 -52 -206 -14 -280
l25 -50 -19 -79 c-23 -97 -24 -152 -4 -229 18 -69 48 -112 130 -186 l60 -55 0
-105 c0 -92 4 -112 26 -160 35 -76 79 -122 174 -187 44 -31 72 -53 63 -50 -21
7 -16 -9 44 -131 58 -118 115 -192 171 -222 26 -14 47 -29 47 -34 0 -5 24 -38
52 -73 60 -74 155 -156 223 -193 25 -14 78 -57 119 -96 87 -86 168 -140 236
-157 38 -10 58 -23 87 -57 21 -25 49 -55 63 -68 32 -30 138 -82 167 -82 12 0
28 -9 36 -21 38 -54 155 -109 230 -109 17 0 73 -14 126 -31 108 -34 240 -48
291 -31 28 10 36 9 57 -8 43 -33 96 -27 146 18 23 21 69 59 103 85 122 92 196
195 244 336 20 60 79 420 80 484 0 18 -17 52 -46 92 l-45 64 -28 -32 c-16 -18
-38 -58 -50 -90 -68 -183 -58 -167 -92 -155 -41 14 -109 -6 -145 -43 -22 -23
-29 -40 -32 -89 -4 -56 -13 -73 -27 -51 -11 20 -90 23 -159 7 -38 -9 -70 -15
-71 -14 -1 2 -10 48 -20 103 -23 132 -28 143 -72 162 -47 19 -117 12 -220 -22
l-75 -25 -20 25 c-36 45 -114 75 -244 90 l-51 7 -2 58 c-1 67 -23 135 -53 167
-26 28 -88 31 -148 7 l-41 -17 -65 44 c-52 35 -64 48 -59 64 18 65 27 166 19
197 -14 47 -44 59 -143 57 l-84 -2 -24 53 c-13 29 -42 70 -64 91 l-41 38 21
79 c30 112 28 138 -11 158 -17 9 -66 19 -109 21 l-78 6 2 71 c2 82 -22 138
-92 218 l-41 46 24 29 c49 59 106 147 106 164 0 27 -63 55 -166 76 -49 9 -91
18 -93 20 -2 1 7 42 19 90 22 85 23 90 8 153 -9 36 -19 75 -23 86 -6 19 4 27
83 69 106 56 182 111 200 145 18 34 9 120 -19 177 -19 40 -20 49 -9 67 42 65
68 121 96 206 l32 94 120 -3 119 -3 35 44 c82 101 93 125 93 207 0 42 -4 93
-8 114 -8 37 -7 38 15 31 72 -23 120 10 173 120 l33 68 18 -28 c10 -16 61 -89
112 -161 91 -130 95 -133 145 -148 42 -12 190 -45 201 -45 2 0 6 20 8 44 3 24
17 68 31 99 34 74 59 87 179 87 109 0 220 15 248 32 12 7 26 31 31 53 44 161
77 220 136 243 16 6 75 23 133 37 167 42 322 122 402 209 l37 40 96 6 c113 7
128 16 200 115 79 109 148 187 194 223 58 44 97 43 204 -9 75 -36 94 -40 162
-42 l77 -1 47 52 c56 64 78 66 175 21 77 -36 118 -34 156 6 36 38 101 59 160
51 l49 -7 -15 43 c-24 69 -38 83 -103 103 -54 16 -61 21 -61 44 0 56 -21 271
-35 358 -18 113 -38 166 -70 183 -21 11 -30 11 -59 -5 -57 -31 -86 -11 -142
99 -25 50 -60 105 -77 123 l-30 32 -24 -30 c-31 -37 -73 -59 -111 -59 -36 0
-78 39 -87 81 -8 36 -48 85 -86 104 -34 18 -113 19 -173 3 -39 -10 -55 -9
-128 12 -183 51 -511 75 -610 44z"/>
<path d="M10482 7938 c-92 -137 -141 -258 -177 -438 -30 -151 -55 -226 -85
-258 -12 -12 -17 -22 -12 -22 17 0 52 46 67 90 9 25 29 100 46 166 38 160 52
197 93 253 36 49 116 206 116 227 0 30 -21 21 -48 -18z"/>
<path d="M9456 7760 c-97 -38 -173 -137 -196 -258 -39 -194 114 -402 295 -402
98 0 212 76 259 173 73 150 50 303 -62 420 -80 82 -192 107 -296 67z m225 -26
c63 -35 121 -105 144 -174 25 -74 17 -208 -15 -275 -51 -105 -147 -169 -255
-168 -112 0 -195 55 -250 165 -32 64 -35 79 -35 153 0 93 15 144 60 210 81
118 228 155 351 89z"/>
<path d="M9480 7563 c-69 -36 -99 -118 -66 -181 30 -57 63 -77 126 -77 63 0
96 20 126 77 58 111 -73 239 -186 181z m35 -68 c0 -30 -39 -27 -43 3 -3 20 0
23 20 20 15 -2 23 -10 23 -23z"/>
<path d="M7278 7363 c6 -2 18 -2 25 0 6 3 1 5 -13 5 -14 0 -19 -2 -12 -5z"/>
<path d="M7345 7365 c6 -2 27 -6 48 -10 46 -7 96 -50 148 -127 22 -32 42 -58
45 -58 7 0 -70 111 -100 143 -31 33 -84 57 -123 56 -15 0 -23 -2 -18 -4z"/>
<path d="M7213 7339 c-35 -22 -93 -103 -93 -128 1 -9 7 -1 15 17 21 48 51 84
93 109 20 13 33 23 27 23 -5 0 -24 -10 -42 -21z"/>
<path d="M8102 7190 c-42 -135 -48 -338 -13 -468 27 -105 54 -159 129 -258
127 -168 305 -318 447 -377 119 -49 330 -82 371 -58 15 8 5 10 -47 11 -95 0
-233 26 -296 56 -59 28 -266 175 -327 232 -21 21 -53 60 -71 87 -18 28 -49 70
-70 95 -51 61 -69 106 -99 253 -28 138 -35 312 -15 392 14 54 6 83 -9 35z"/>
<path d="M7112 7165 c0 -16 2 -22 5 -12 2 9 2 23 0 30 -3 6 -5 -1 -5 -18z"/>
<path d="M7050 7053 c-56 -57 -80 -92 -79 -118 1 -13 4 -9 10 11 5 17 29 51
55 75 37 36 74 82 62 78 -2 -1 -23 -21 -48 -46z"/>
<path d="M7127 6963 c-20 -14 -36 -28 -33 -30 4 -4 136 47 136 53 0 14 -72 -2
-103 -23z"/>
<path d="M7375 6969 c77 -11 149 -18 160 -16 36 4 -182 37 -242 36 -46 -1 -29
-5 82 -20z"/>
<path d="M7568 6943 c7 -3 16 -2 19 1 4 3 -2 6 -13 5 -11 0 -14 -3 -6 -6z"/>
<path d="M6970 6869 c0 -4 7 -22 15 -40 8 -19 14 -27 14 -19 0 14 -28 72 -29
59z"/>
<path d="M7495 6803 c-233 -14 -354 -37 -397 -74 -25 -22 -22 -22 37 5 25 11
82 22 150 27 161 14 396 47 320 46 -33 0 -82 -2 -110 -4z"/>
<path d="M7003 6740 c0 -25 2 -35 4 -22 2 12 2 32 0 45 -2 12 -4 2 -4 -23z"/>
<path d="M6982 6647 c-7 -19 -35 -60 -62 -91 -63 -73 -80 -105 -79 -153 l2
-38 6 45 c8 56 20 77 76 140 47 53 78 105 73 121 -2 6 -9 -5 -16 -24z"/>
<path d="M7589 6665 c-15 -14 -276 -77 -349 -84 l-85 -8 90 -1 c82 0 103 4
235 48 80 26 138 48 129 49 -9 1 -18 -1 -20 -4z"/>
<path d="M7638 6475 c-37 -23 -91 -49 -120 -58 -74 -23 -237 -40 -322 -35 -50
4 -64 3 -46 -4 46 -17 220 -14 318 6 83 17 101 24 168 73 41 30 74 56 74 59 0
6 3 7 -72 -41z"/>
<path d="M6850 6355 c0 -4 12 -24 27 -44 31 -40 113 -121 113 -111 0 3 -19 24
-41 45 -23 22 -54 58 -70 79 -16 21 -29 35 -29 31z"/>
<path d="M7740 6308 c-74 -69 -99 -78 -232 -79 -100 -1 -107 -2 -63 -10 28 -5
87 -11 132 -12 77 -2 83 -1 120 29 31 26 113 125 101 124 -1 -1 -28 -24 -58
-52z"/>
<path d="M6982 6110 c0 -19 2 -27 5 -17 2 9 2 25 0 35 -3 9 -5 1 -5 -18z"/>
<path d="M6980 6010 c0 -9 7 -26 16 -39 17 -24 100 -81 118 -81 6 0 -14 15
-44 33 -35 20 -61 45 -72 67 -10 19 -18 28 -18 20z"/>
<path d="M8012 5985 c0 -16 2 -22 5 -12 2 9 2 23 0 30 -3 6 -5 -1 -5 -18z"/>
<path d="M7138 5883 c7 -3 16 -2 19 1 4 3 -2 6 -13 5 -11 0 -14 -3 -6 -6z"/>
<path d="M7185 5870 c27 -12 43 -12 25 0 -8 5 -22 9 -30 9 -10 0 -8 -3 5 -9z"/>
<path d="M8582 5860 c-18 -4 -35 -9 -37 -11 -2 -2 -13 -62 -25 -134 -23 -132
-95 -431 -82 -340 4 28 7 86 7 130 -1 77 -3 84 -59 193 -65 129 -45 120 -178
81 l-67 -19 -54 -103 c-30 -56 -76 -150 -101 -209 l-47 -107 11 -131 c12 -152
34 -222 117 -377 53 -100 54 -103 37 -127 -23 -36 -127 -103 -187 -121 -29 -8
-83 -18 -122 -22 -60 -5 -75 -10 -106 -38 -55 -49 -161 -85 -295 -100 -58 -6
-63 -9 -93 -51 -19 -27 -46 -51 -68 -60 -35 -15 -47 -15 -85 1 -13 5 -21 -2
-32 -30 -12 -28 -27 -41 -72 -62 -47 -21 -72 -26 -150 -27 -93 -1 -94 -1 -105
-29 -22 -53 -126 -113 -255 -147 -43 -11 -84 -20 -92 -20 -8 0 -32 -18 -52
-40 -34 -36 -41 -40 -86 -40 -27 0 -68 9 -92 20 l-43 20 -37 -36 c-84 -82
-299 -148 -547 -170 -68 -5 -84 -10 -110 -34 -75 -69 -181 -98 -390 -107 -148
-6 -151 -6 -205 -39 -123 -75 -270 -96 -389 -55 -53 19 -55 19 -110 -1 -88
-33 -225 -30 -316 7 -43 17 -83 26 -105 24 -63 -6 -204 -4 -236 3 l-32 7 -27
-87 c-35 -112 -54 -147 -104 -199 -36 -36 -41 -47 -41 -86 0 -37 6 -53 35 -87
42 -51 55 -91 62 -200 5 -76 3 -91 -21 -147 -37 -89 -33 -148 15 -199 l21 -22
-32 -98 c-17 -55 -34 -131 -37 -169 -10 -133 30 -162 207 -152 122 6 208 37
229 82 20 44 51 74 102 100 67 34 105 38 198 21 112 -22 215 -20 266 3 69 31
104 81 166 234 35 88 44 93 143 84 128 -12 176 19 238 153 60 130 61 131 88
145 14 7 56 16 94 20 157 16 221 53 308 178 91 131 124 144 300 122 54 -6 76
-4 112 9 51 20 107 76 138 141 12 25 31 48 42 52 12 3 73 7 136 7 123 2 143 8
195 57 17 15 75 49 130 75 290 135 279 127 401 247 123 121 164 146 234 147
54 1 116 27 150 65 56 61 108 68 266 34 55 -12 138 -22 186 -23 81 -1 89 1
128 29 86 61 158 221 167 370 5 82 3 97 -21 157 l-26 66 51 88 c69 120 114
210 161 324 22 52 36 82 33 65 -4 -16 -14 -59 -22 -95 -11 -46 -17 -152 -22
-360 -6 -248 -10 -301 -24 -333 -19 -40 -57 -189 -57 -222 0 -28 73 45 171
172 78 100 140 161 229 226 74 54 74 54 82 397 5 224 12 345 28 455 11 83 23
186 26 230 l6 80 -72 78 c-74 80 -81 83 -148 67z"/>
<path d="M7246 5838 c10 -14 21 -24 23 -22 3 3 -6 15 -18 27 l-24 22 19 -27z"/>
<path d="M7271 5784 c0 -11 3 -14 6 -6 3 7 2 16 -1 19 -3 4 -6 -2 -5 -13z"/>
<path d="M7280 5757 c0 -32 108 -165 155 -189 11 -6 -6 13 -38 42 -32 29 -72
76 -88 104 -16 28 -29 47 -29 43z"/>
<path d="M7950 5555 c-12 -19 -41 -49 -66 -67 -41 -29 -59 -48 -31 -32 35 20
94 75 110 103 25 43 14 39 -13 -4z"/>
<path d="M7570 5550 c-11 -8 -7 -9 14 -4 26 6 34 0 90 -60 62 -67 90 -79 126
-56 10 6 3 8 -23 3 -37 -6 -40 -3 -100 61 -62 66 -79 75 -107 56z"/>
<path d="M7518 5533 c6 -2 18 -2 25 0 6 3 1 5 -13 5 -14 0 -19 -2 -12 -5z"/>
</g>
</svg>
