<?xml version="1.0" standalone="no"?>
<!DOCTYPE svg PUBLIC "-//W3C//DTD SVG 20010904//EN"
 "http://www.w3.org/TR/2001/REC-SVG-20010904/DTD/svg10.dtd">
<svg version="1.0" xmlns="http://www.w3.org/2000/svg"
 width="420.000000pt" height="435.000000pt" viewBox="0 0 420.000000 435.000000"
 preserveAspectRatio="xMidYMid meet">

<g transform="translate(0.000000,435.000000) scale(0.100000,-0.100000)"
fill="#000000" stroke="none">
<path d="M1947 4328 c-8 -13 -24 -33 -36 -45 -31 -32 -161 -204 -161 -212 0
-4 -9 -16 -19 -28 -11 -11 -34 -46 -53 -78 -18 -31 -40 -69 -49 -83 -36 -60
-64 -110 -87 -157 l-25 -50 -23 50 c-12 28 -34 79 -47 115 -14 36 -29 64 -33
63 -9 -1 -24 -45 -72 -198 -12 -38 -31 -100 -43 -137 -11 -38 -24 -68 -27 -68
-6 0 -68 67 -125 134 -9 12 -25 30 -35 41 -10 11 -51 60 -90 108 -43 52 -74
83 -77 75 -52 -146 -100 -363 -126 -568 -11 -90 -14 -394 -4 -410 3 -6 1 -10
-5 -10 -11 0 -48 21 -270 149 -69 40 -145 84 -170 98 -25 14 -78 45 -117 69
-40 24 -74 44 -77 44 -2 0 -30 16 -62 35 -32 19 -61 35 -65 35 -8 0 17 -87 61
-215 46 -133 52 -148 71 -188 11 -22 19 -43 19 -49 0 -22 141 -289 200 -378
20 -31 39 -63 43 -73 8 -22 -6 -22 -135 -1 -55 9 -102 13 -105 11 -2 -3 4 -14
14 -24 10 -11 34 -37 53 -59 19 -21 77 -85 129 -142 51 -57 92 -104 90 -106
-5 -4 -170 -38 -324 -66 -66 -12 -129 -25 -140 -29 -17 -7 -2 -25 108 -133 70
-69 150 -143 177 -164 28 -21 50 -42 50 -46 0 -4 4 -8 9 -8 6 0 45 -26 88 -59
43 -32 83 -60 88 -62 6 -2 53 -30 107 -62 53 -31 100 -57 105 -57 5 0 19 -7
32 -16 23 -16 22 -16 -56 -60 -43 -24 -85 -49 -93 -54 -8 -6 -28 -17 -45 -26
-16 -8 -70 -39 -120 -69 -49 -29 -130 -76 -180 -105 -50 -28 -108 -62 -130
-76 -22 -13 -47 -27 -55 -31 -8 -3 -25 -14 -37 -23 -22 -17 -21 -18 55 -39 42
-11 91 -23 107 -25 17 -2 66 -11 110 -19 154 -30 301 -42 502 -42 185 0 200
-1 192 -17 -5 -9 -15 -22 -21 -30 -26 -26 -95 -114 -112 -140 l-17 -27 58 15
c32 9 81 19 108 24 28 5 99 20 159 35 60 14 110 24 113 22 4 -4 -61 -202 -126
-385 l-30 -83 37 7 c32 6 166 44 312 88 72 22 134 47 144 57 6 5 16 9 23 9 20
0 198 88 280 139 65 39 76 43 105 35 l33 -10 3 -272 2 -272 128 0 127 0 30 37
c17 21 39 51 51 68 125 184 131 193 202 325 45 84 59 103 65 93 9 -16 75 -179
82 -200 7 -27 25 -31 25 -7 0 9 18 69 39 133 21 64 49 151 62 193 13 43 26 78
30 78 3 0 19 -16 35 -36 16 -20 38 -46 50 -58 11 -11 45 -50 75 -86 71 -85 99
-118 127 -148 12 -14 22 -29 22 -33 0 -5 4 -9 10 -9 5 0 14 19 21 43 6 23 17
65 25 92 68 249 97 451 98 688 0 97 3 177 6 177 3 0 21 -10 40 -21 30 -19 288
-169 375 -219 17 -9 68 -40 115 -67 168 -99 225 -131 230 -127 7 8 -97 316
-136 402 -13 29 -24 54 -24 57 0 24 -185 365 -225 415 -6 8 -15 23 -18 33 -7
20 -7 20 161 -5 40 -6 75 -8 79 -5 5 6 -101 127 -234 267 -29 30 -53 57 -53
60 0 3 55 16 123 29 304 56 347 66 347 80 0 15 -168 184 -260 262 -72 61 -185
146 -213 160 -12 7 -26 18 -30 25 -4 8 -12 14 -17 14 -5 0 -33 15 -62 34 -29
18 -86 50 -125 70 -40 20 -73 40 -73 44 0 4 71 47 158 97 86 49 180 103 207
120 28 17 61 36 75 43 14 7 34 18 45 25 11 7 43 25 70 40 28 15 68 38 90 52
22 14 47 28 55 32 8 3 26 13 39 22 24 15 24 15 -25 28 -120 32 -300 65 -434
79 -142 14 -480 21 -499 10 -5 -4 -13 -1 -16 5 -4 6 27 55 69 110 42 54 72 99
66 99 -6 0 -39 -6 -73 -14 -34 -8 -105 -24 -157 -36 -52 -11 -116 -26 -142
-32 -26 -7 -50 -9 -53 -6 -3 3 1 25 10 49 9 24 34 96 55 159 21 63 50 146 64
184 14 37 26 70 26 71 0 14 -311 -74 -440 -125 -30 -12 -69 -27 -86 -34 -18
-6 -38 -17 -45 -23 -8 -6 -25 -14 -39 -18 -26 -8 -82 -37 -165 -86 -81 -47
-94 -51 -131 -39 l-34 12 0 334 0 334 -74 0 c-65 0 -75 -3 -89 -22z m-53
-1077 c26 -28 32 -86 12 -116 -9 -14 -13 -25 -8 -25 12 0 32 -46 32 -74 0 -13
-5 -37 -11 -55 -8 -23 -17 -31 -35 -31 -28 0 -43 25 -25 43 8 8 11 7 11 -6 0
-9 5 -17 11 -17 7 0 9 20 5 63 -3 34 -6 86 -6 115 1 89 -16 113 -65 90 -28
-13 -39 -51 -29 -102 5 -28 3 -36 -9 -36 -27 0 -37 62 -16 103 34 66 97 88
133 48z m617 -12 c30 -15 42 -56 29 -95 -6 -18 -17 -35 -25 -38 -10 -4 -12
-18 -9 -58 4 -41 1 -60 -14 -84 -33 -52 -88 -49 -67 4 7 16 8 16 14 -2 6 -17
9 -15 20 12 7 18 13 54 13 81 0 32 5 52 14 55 18 7 28 70 15 95 -8 13 -21 21
-39 21 -36 0 -76 -56 -66 -94 5 -22 3 -26 -15 -26 -27 0 -27 21 0 75 30 59 81
81 130 54z m-511 -21 c0 -22 -17 -41 -29 -34 -19 12 -13 46 9 46 11 0 20 -6
20 -12z m-145 -105 c-1 -143 -31 -202 -86 -172 -15 7 -19 19 -17 41 4 42 28
50 28 9 0 -16 5 -33 10 -36 18 -11 29 43 29 134 0 83 10 131 29 131 5 0 8 -48
7 -107z m635 78 c0 -6 -4 -13 -10 -16 -5 -3 -10 -14 -10 -23 0 -9 -10 -48 -21
-87 -23 -74 -63 -125 -99 -125 -37 0 -49 71 -14 84 10 4 14 -4 14 -30 0 -62
23 -33 57 70 30 92 54 136 75 136 4 0 8 -4 8 -9z m-504 -111 c-3 -39 -2 -70 3
-70 13 0 34 57 27 75 -7 18 10 65 23 65 5 0 11 -12 13 -27 l4 -28 12 29 c19
45 24 24 11 -43 -7 -33 -10 -63 -6 -67 12 -12 34 15 40 49 8 51 25 87 41 87
11 0 13 -7 6 -32 -13 -51 -19 -118 -11 -118 12 0 30 40 40 89 10 46 23 66 39
60 5 -3 3 -32 -5 -73 -15 -73 -12 -91 12 -60 11 14 14 15 14 4 0 -21 -34 -60
-53 -60 -10 0 -16 9 -16 23 l-1 22 -19 -24 c-22 -25 -50 -22 -50 5 0 15 -4 14
-24 -5 -35 -33 -49 -19 -44 41 6 57 5 56 -31 -14 -40 -77 -55 -71 -59 24 -3
76 8 118 30 118 7 0 9 -22 4 -70z m754 33 c0 -5 -7 -17 -15 -27 -8 -11 -13
-27 -10 -37 4 -10 -3 -22 -18 -32 -24 -16 -56 -92 -43 -105 11 -10 55 43 62
76 4 15 13 34 20 42 8 8 25 29 38 45 28 34 45 28 28 -10 -7 -14 -12 -37 -12
-50 0 -15 -6 -25 -15 -25 -8 0 -26 -22 -40 -50 -29 -58 -16 -67 33 -22 55 50
67 60 89 66 16 5 23 2 28 -13 4 -13 12 -18 28 -14 13 3 18 1 12 -4 -13 -10
-75 -107 -75 -117 0 -4 10 -5 23 -1 20 6 20 4 -6 -19 -36 -33 -57 -33 -57 -1
0 22 -3 24 -19 15 -32 -16 -41 -12 -41 20 l0 29 -31 -17 c-19 -10 -33 -13 -35
-7 -13 32 -22 39 -38 26 -19 -16 -36 -6 -36 21 0 15 -4 18 -17 13 -10 -5 -29
-8 -43 -9 -22 -1 -25 4 -28 36 -4 42 28 112 57 128 34 18 51 12 51 -17 0 -27
-25 -63 -44 -63 -27 -1 -38 -17 -27 -39 12 -21 13 -21 40 -5 18 11 34 32 42
58 7 23 23 54 36 69 13 16 23 33 23 38 0 5 9 9 20 9 11 0 20 -3 20 -7z m-1110
-86 c0 -60 14 -91 29 -67 16 24 22 6 10 -28 -11 -33 -27 -40 -46 -21 -7 7 -15
2 -27 -16 -14 -21 -20 -24 -32 -14 -8 6 -14 19 -14 28 -1 9 -8 0 -16 -19 -9
-20 -16 -59 -15 -90 1 -68 -10 -90 -34 -70 -14 12 -16 26 -13 75 3 33 3 52 1
43 -5 -20 -38 -24 -49 -7 -4 7 -12 -1 -20 -20 -18 -43 -36 -32 -62 37 -19 54
-21 55 -21 23 -1 -19 4 -49 11 -68 14 -38 3 -57 -18 -29 -13 19 -14 19 -14 -7
0 -32 -23 -45 -45 -27 -13 11 -15 8 -15 -19 0 -32 -16 -41 -37 -20 -19 19 -53
-11 -53 -48 0 -40 -22 -44 -58 -10 l-25 22 12 -22 c14 -27 14 -70 1 -78 -23
-14 -83 33 -169 135 l-21 25 20 -37 c12 -20 28 -42 36 -48 16 -14 19 -35 4
-25 -16 10 -90 127 -97 153 -12 47 13 41 56 -13 52 -65 135 -145 151 -145 22
0 3 64 -44 149 -57 104 -59 113 -42 137 15 19 15 19 36 -2 12 -12 30 -50 39
-85 24 -86 35 -110 60 -133 21 -19 21 -19 21 1 0 11 -9 28 -21 39 -24 22 -51
82 -43 96 9 14 30 -8 53 -58 12 -24 26 -44 31 -44 13 0 13 49 0 87 -14 39 2
83 29 83 11 0 21 8 23 18 2 10 15 -11 32 -50 16 -38 33 -68 39 -68 9 0 6 53
-9 128 -7 37 12 45 25 10 7 -20 9 -18 15 15 4 20 11 37 16 37 15 0 36 -40 50
-93 19 -71 36 -46 23 35 -11 68 -8 88 12 88 8 0 16 -20 20 -52 8 -68 14 -88
26 -88 12 0 12 66 -1 110 -8 27 -7 38 4 49 12 12 16 8 26 -30 7 -24 17 -59 22
-78 l11 -34 13 32 c9 22 11 45 5 76 -6 32 -5 50 4 62 18 24 22 17 28 -47 4
-31 9 -64 13 -74 13 -35 25 7 18 67 -4 39 -2 62 6 72 20 24 30 7 30 -48z
m1567 -103 l23 -25 -22 -19 c-13 -11 -26 -19 -29 -20 -3 0 -15 -13 -27 -29
-33 -46 -8 -47 40 -3 47 43 88 62 88 40 0 -22 -16 -39 -31 -33 -22 8 -90 -50
-110 -94 -9 -21 -22 -42 -28 -45 -6 -4 -11 -14 -11 -22 0 -22 57 -8 92 21 47
39 145 95 167 95 11 0 21 -6 21 -14 0 -27 -115 -106 -154 -106 -20 0 -66 -43
-66 -62 0 -18 37 -14 88 9 47 21 96 14 100 -14 2 -12 11 -23 20 -25 11 -2 -3
-15 -40 -36 -65 -38 -79 -52 -48 -52 14 0 19 -4 14 -12 -4 -6 10 -1 32 12 51
31 61 36 110 50 65 19 92 -9 29 -30 -19 -6 -34 -17 -32 -23 1 -7 -11 -12 -28
-12 -40 -1 -92 -23 -99 -42 -5 -13 6 -14 79 -8 75 7 85 5 91 -10 16 -42 -44
-70 -93 -44 -17 9 -26 10 -35 1 -16 -16 -2 -42 24 -42 19 0 20 -2 8 -11 -12
-9 -12 -10 3 -5 10 3 43 9 73 12 46 6 54 4 54 -10 0 -9 -8 -16 -17 -17 -11 0
-3 -7 17 -16 l35 -15 -24 -19 c-16 -13 -39 -19 -72 -19 -53 0 -73 -15 -37 -29
22 -9 21 -10 -8 -10 -38 -1 -72 30 -51 47 7 6 38 17 68 23 45 11 50 13 29 19
-14 3 -42 2 -63 -3 -28 -7 -41 -6 -50 3 -9 10 -9 14 1 17 19 7 14 23 -8 23
-10 0 -24 9 -30 21 -9 16 -8 25 6 40 16 18 16 19 -7 19 -40 0 -56 16 -41 40
17 28 16 30 -18 30 -31 0 -39 17 -18 38 9 9 6 12 -15 12 -32 0 -45 23 -27 45
11 13 7 15 -24 15 -47 0 -57 22 -25 56 l24 26 -37 -17 c-73 -35 -89 4 -33 78
48 63 44 76 -10 29 -44 -39 -85 -55 -112 -45 -19 7 -17 72 2 80 23 8 28 -2 15
-27 -8 -15 -9 -25 -2 -32 7 -7 34 13 82 62 40 39 85 76 102 82 l29 10 -22 24
c-17 19 -25 21 -40 11 -10 -6 -19 -20 -21 -32 -3 -20 -38 -35 -38 -15 0 19 69
80 91 80 12 0 32 -12 46 -26z m-2326 -246 c39 -35 77 -63 85 -63 16 0 61 -62
66 -91 5 -33 -18 -21 -84 41 -69 66 -105 93 -73 54 11 -13 25 -28 31 -34 59
-57 90 -150 49 -150 -11 0 -25 11 -32 25 -14 29 -9 38 12 20 9 -7 19 -10 22
-6 10 9 -22 61 -77 126 -25 30 -54 66 -63 80 -16 24 -23 60 -11 60 3 0 37 -28
75 -62z m1645 -94 l21 -6 -18 -82 c-10 -46 -23 -94 -28 -107 -15 -42 -59 -261
-66 -331 -6 -62 -9 -68 -29 -68 -20 0 -23 7 -34 93 -19 150 -88 346 -154 436
-24 32 -23 38 10 55 20 11 61 15 152 15 69 1 135 -2 146 -5z m189 -31 c69 -22
125 -51 157 -81 l27 -25 -21 -31 c-12 -17 -66 -74 -119 -126 -63 -62 -122
-133 -168 -202 -51 -76 -78 -108 -92 -108 -28 0 -24 25 17 136 51 135 63 191
73 325 4 64 11 121 15 127 7 12 40 8 111 -15z m-1205 -147 c0 -8 6 -16 13 -19
18 -6 37 3 37 19 0 9 11 14 30 14 20 0 30 -5 30 -15 0 -17 -2 -16 65 -20 28
-1 53 -3 58 -4 13 -2 7 -39 -8 -45 -20 -7 -19 -33 2 -44 23 -14 25 -40 2 -47
-10 -4 -19 -12 -19 -19 0 -28 -32 -76 -51 -76 -26 0 -37 30 -16 45 21 15 22
44 2 51 -8 4 -15 14 -16 23 0 9 -8 29 -18 46 -15 25 -24 30 -56 30 -32 0 -39
-4 -47 -27 -12 -34 -45 -37 -58 -5 -6 12 -16 30 -22 40 -11 15 -10 20 5 31 9
7 17 18 17 25 0 6 11 11 25 11 15 0 25 -6 25 -14z m1560 -97 c0 -5 9 -18 19
-28 10 -10 31 -39 45 -64 l26 -44 -27 -10 c-16 -6 -53 -16 -83 -23 -30 -7 -62
-16 -70 -20 -8 -4 -40 -18 -70 -30 -79 -32 -103 -46 -204 -116 -84 -59 -92
-62 -108 -47 -10 9 -18 22 -18 29 0 7 37 45 81 86 45 40 103 94 130 119 54 51
119 143 119 167 0 9 12 28 26 43 l26 27 54 -40 c30 -23 54 -45 54 -49z m-1878
25 c4 -3 1 -19 -9 -35 -13 -22 -25 -29 -49 -29 -33 0 -44 13 -44 51 0 34 55
42 102 13z m226 -69 c-3 -16 0 -22 11 -21 11 1 16 -7 16 -24 0 -31 -38 -36
-43 -5 -3 11 -10 24 -18 28 -17 10 -18 44 -1 50 22 8 39 -5 35 -28z m574 -24
c11 -2 -4 -41 -16 -42 -6 -1 -21 0 -33 1 -16 1 -26 -6 -33 -24 -11 -31 -50
-36 -50 -7 0 25 -22 42 -39 31 -19 -11 -41 -1 -41 19 0 10 2 20 5 23 4 4 184
3 207 -1z m-15 -87 c3 -8 -1 -22 -9 -30 -12 -12 -17 -12 -33 -1 -23 17 -14 47
15 47 11 0 23 -7 27 -16z m223 -58 c0 -19 -30 -29 -46 -15 -10 8 -11 16 -3 30
8 15 14 17 29 9 11 -6 20 -17 20 -24z m1064 -60 c47 -92 61 -166 34 -182 -7
-5 -123 -9 -258 -9 -135 -1 -273 -5 -307 -9 l-63 -9 0 31 c0 27 4 32 38 41 20
6 46 11 58 11 59 0 308 114 366 168 29 26 69 51 80 48 4 0 27 -41 52 -90z
m-1675 71 c15 -19 -9 -50 -32 -41 -20 7 -23 40 -4 47 20 9 24 8 36 -6z m99
-15 c2 -12 10 -22 18 -22 19 0 18 -46 -1 -53 -8 -4 -17 -2 -20 3 -3 5 -19 7
-35 3 -36 -7 -54 22 -27 42 10 7 17 19 17 28 0 33 43 32 48 -1z m260 -16 c4
-21 -14 -37 -35 -29 -14 5 -18 35 -6 47 12 12 38 1 41 -18z m-480 -20 c-2 -13
-10 -21 -23 -21 -23 0 -33 34 -14 45 20 13 40 -1 37 -24z m647 -1 c0 -13 -8
-21 -23 -23 -26 -4 -42 25 -21 39 22 14 44 6 44 -16z m-508 -41 c7 -19 -20
-49 -36 -40 -6 4 -11 18 -11 32 0 17 5 24 20 24 11 0 23 -7 27 -16z m1707
-255 c11 -54 7 -134 -9 -180 -15 -42 -18 -45 -49 -45 -19 1 -32 4 -29 9 2 4
-4 7 -14 7 -10 0 -31 7 -47 15 -15 8 -38 15 -50 15 -12 0 -37 11 -56 25 -19
14 -40 25 -48 25 -8 0 -44 9 -80 19 -37 11 -106 30 -154 42 -68 17 -88 26 -88
39 0 37 24 43 133 32 123 -12 280 -10 299 4 7 6 29 11 48 13 19 2 37 5 39 7 2
2 26 4 51 4 45 0 48 -2 54 -31z m-2076 -67 c10 7 4 -2 -12 -20 -16 -17 -32
-29 -35 -26 -3 3 1 11 10 17 9 7 15 18 13 25 -1 7 0 8 3 2 3 -7 10 -7 21 2z
m-169 -61 c-7 -28 -15 -51 -18 -51 -3 0 -7 -42 -8 -93 -1 -76 0 -88 10 -67 6
14 15 28 20 31 5 3 9 10 9 15 0 17 39 84 48 84 5 0 7 6 4 14 -7 18 12 30 22
15 5 -8 3 -9 -6 -4 -8 5 -11 3 -8 -6 3 -8 -8 -33 -23 -56 -16 -23 -29 -46 -29
-51 0 -5 -11 -30 -24 -56 -21 -42 -24 -44 -30 -24 -17 65 6 293 27 272 4 -4 7
3 7 16 0 13 3 21 6 17 3 -3 0 -29 -7 -56z m398 53 c-3 -3 -12 -4 -19 -1 -8 3
-5 6 6 6 11 1 17 -2 13 -5z m43 -22 c8 -2 23 -11 33 -20 14 -12 15 -17 5 -25
-9 -6 -6 -7 10 -4 26 6 85 -20 77 -34 -4 -5 1 -6 9 -3 16 6 50 -19 39 -29 -3
-3 3 -5 13 -5 22 2 106 -51 99 -62 -10 -15 55 -2 88 19 21 12 42 19 49 15 7
-4 10 -4 6 1 -9 10 19 38 31 31 5 -4 12 0 14 6 3 7 6 8 6 3 1 -6 -35 -46 -79
-89 l-80 -78 -32 23 c-69 48 -118 92 -118 106 0 8 -5 11 -10 8 -6 -4 -31 8
-56 27 -54 39 -105 83 -85 72 9 -4 12 -2 9 7 -3 8 -13 14 -24 14 -26 1 -46 14
-38 27 4 5 9 6 13 2 3 -5 13 -10 21 -12z m1375 -93 c71 -22 136 -39 145 -38 8
1 24 -2 35 -7 11 -5 57 -9 101 -9 45 0 78 -3 72 -6 -5 -3 0 -9 12 -12 18 -4
20 -10 15 -29 -18 -57 -71 -155 -103 -190 -34 -38 -35 -38 -56 -20 -12 10 -30
24 -41 32 -17 12 -18 12 -7 0 20 -23 14 -38 -19 -45 l-31 -7 21 -22 20 -22
-22 -26 c-12 -14 -48 -42 -80 -62 -45 -28 -71 -37 -110 -39 -45 -2 -52 1 -64
23 -9 18 -13 20 -13 8 0 -14 -8 -18 -36 -18 l-36 0 16 -25 c15 -22 15 -25 1
-25 -9 0 -26 -6 -38 -14 -35 -21 -132 -40 -163 -31 -16 5 -32 9 -36 10 -5 2
-15 3 -23 4 -8 0 -15 11 -15 22 0 17 -3 19 -13 10 -8 -6 -17 -8 -20 -4 -4 3
-7 -1 -7 -10 0 -13 -9 -17 -37 -17 -75 0 -233 64 -233 94 0 7 5 17 12 24 9 9
8 12 -5 12 -10 0 -23 12 -29 28 l-12 27 -4 -32 c-2 -18 -8 -33 -13 -33 -42 0
-229 142 -229 174 0 11 130 96 147 96 16 0 116 77 187 144 44 42 82 76 86 76
4 0 17 -12 31 -27 13 -14 19 -23 12 -19 -7 4 -14 -2 -18 -15 -4 -11 -16 -30
-26 -40 -11 -11 -17 -24 -14 -28 2 -5 -2 -11 -10 -15 -8 -3 -15 -12 -15 -21 0
-9 -11 -27 -25 -39 -28 -26 -40 -62 -24 -71 16 -10 10 -27 -7 -21 -13 5 -14 3
-6 -7 6 -7 24 -12 39 -11 23 1 27 5 25 23 -3 16 3 24 18 28 15 4 20 11 17 24
-3 12 0 19 9 19 8 0 14 6 14 12 0 26 52 148 63 148 7 0 23 -9 37 -20 14 -11
41 -20 60 -20 30 0 82 -19 55 -20 -6 0 -6 -3 1 -8 6 -4 16 -29 23 -57 15 -58
27 -76 47 -68 9 3 29 -4 46 -17 37 -27 47 -19 24 20 -9 17 -15 30 -12 30 3 0
-10 34 -29 75 -34 74 -34 75 -14 86 17 9 27 6 58 -15 21 -15 48 -38 60 -52 12
-14 26 -22 31 -19 5 3 7 0 4 -8 -3 -8 9 -23 30 -38 20 -13 36 -28 36 -32 0 -5
4 -6 9 -3 5 3 27 -12 49 -34 22 -22 48 -40 58 -40 18 1 18 1 0 15 -11 8 -17
18 -13 21 8 8 41 -17 45 -33 1 -7 -3 -13 -10 -13 -6 0 -9 -3 -6 -6 6 -5 78 21
78 29 0 3 -7 4 -16 3 -9 0 -19 5 -22 13 -3 9 0 11 8 6 8 -5 11 -4 6 3 -4 6
-13 9 -21 5 -17 -6 -45 13 -45 31 0 6 5 3 11 -6 5 -10 15 -18 21 -18 14 0 -20
38 -46 52 -13 7 -21 6 -28 -3 -8 -11 -9 -10 -4 3 7 22 -13 35 -25 17 -7 -11
-9 -9 -9 7 0 25 -34 59 -49 49 -6 -3 -8 0 -5 9 3 8 -1 16 -10 18 -28 6 -126
83 -126 99 0 26 10 28 58 12 26 -8 105 -32 177 -54z m-855 17 c0 -2 -8 -10
-17 -17 -16 -13 -17 -12 -4 4 13 16 21 21 21 13z m1173 -63 c-7 -2 -19 -2 -25
0 -7 3 -2 5 12 5 14 0 19 -2 13 -5z m-327 -157 c20 -21 17 -28 -6 -14 -11 7
-20 16 -20 20 0 12 10 9 26 -6z"/>
<path d="M2575 3030 c-13 -24 -13 -30 -2 -30 11 0 37 39 37 55 0 16 -22 0 -35
-25z"/>
<path d="M2821 2925 c-17 -20 -31 -46 -31 -58 0 -19 5 -17 40 20 37 39 52 73
31 73 -5 0 -23 -16 -40 -35z"/>
<path d="M1000 2883 c0 -18 22 -63 31 -63 10 0 1 27 -18 55 -7 11 -13 14 -13
8z"/>
<path d="M1170 2839 c16 -55 35 -89 49 -89 15 0 11 23 -14 83 -19 47 -48 52
-35 6z"/>
<path d="M1480 2776 c0 -14 5 -26 10 -26 6 0 10 9 10 19 0 11 -4 23 -10 26 -6
4 -10 -5 -10 -19z"/>
<path d="M3315 2750 c-11 -5 -31 -18 -45 -29 -22 -18 -23 -20 -4 -15 11 3 34
16 50 29 31 26 31 29 -1 15z"/>
<path d="M3260 2588 c-53 -28 -68 -55 -24 -44 38 10 87 38 86 51 -1 17 -17 15
-62 -7z"/>
<path d="M3396 2403 c-13 -4 -15 -7 -7 -13 15 -9 61 -1 61 11 0 9 -22 10 -54
2z"/>
<path d="M1560 1600 c0 -5 5 -10 10 -10 6 0 10 5 10 10 0 6 -4 10 -10 10 -5 0
-10 -4 -10 -10z"/>
<path d="M1602 1564 c10 -10 20 -16 22 -13 3 3 -5 11 -17 18 -21 13 -21 12 -5
-5z"/>
<path d="M2398 1493 c7 -3 16 -2 19 1 4 3 -2 6 -13 5 -11 0 -14 -3 -6 -6z"/>
<path d="M2378 1443 c-3 -98 13 -140 31 -77 18 65 12 114 -15 114 -9 0 -15
-13 -16 -37z m29 -45 c-3 -7 -5 -2 -5 12 0 14 2 19 5 13 2 -7 2 -19 0 -25z"/>
<path d="M2361 1344 c0 -11 3 -14 6 -6 3 7 2 16 -1 19 -3 4 -6 -2 -5 -13z"/>
<path d="M2650 1315 c0 -8 4 -15 10 -15 5 0 7 7 4 15 -4 8 -8 15 -10 15 -2 0
-4 -7 -4 -15z"/>
<path d="M2560 1294 c0 -14 3 -14 15 -4 8 7 15 14 15 16 0 2 -7 4 -15 4 -8 0
-15 -7 -15 -16z"/>
<path d="M2990 1296 c0 -2 7 -7 16 -10 8 -3 12 -2 9 4 -6 10 -25 14 -25 6z"/>
<path d="M2960 1275 c0 -2 10 -10 23 -16 20 -11 21 -11 8 4 -13 16 -31 23 -31
12z"/>
<path d="M2621 1254 c0 -11 3 -14 6 -6 3 7 2 16 -1 19 -3 4 -6 -2 -5 -13z"/>
</g>
</svg>
