<svg width="32" height="32" viewBox="0 0 32 32" fill="none" xmlns="http://www.w3.org/2000/svg">
<g clip-path="url(#clip0_291_251)">
<path d="M17.228 2.05418C24.9182 2.73135 30.6232 9.53811 29.946 17.2283C29.2689 24.9184 22.4621 30.6234 14.7719 29.9463C7.0818 29.2691 1.37679 22.4623 2.05396 14.7722C2.73113 7.08202 9.53788 1.37701 17.228 2.05418Z" fill="#F44336"/>
<path d="M10.5568 19.0401C10.0625 19.4546 9.99781 20.189 10.4121 20.6835C10.6188 20.9301 10.9063 21.0702 11.204 21.0964C11.5015 21.1226 11.809 21.0349 12.0556 20.8283L15.8554 17.6433L19.0401 21.4433C19.2467 21.6899 19.5342 21.8299 19.8317 21.8561C20.1294 21.8823 20.4369 21.7947 20.6835 21.588C21.1779 21.1735 21.2425 20.4391 20.8282 19.9446L17.6433 16.1448L21.4433 12.9601C21.9376 12.5455 22.0023 11.8111 21.588 11.3166C21.1735 10.8222 20.4391 10.7576 19.9445 11.1719L16.1447 14.3568L12.96 10.5568C12.5455 10.0625 11.8111 9.99783 11.3166 10.4121C10.8222 10.8267 10.7576 11.561 11.1719 12.0556L14.3568 15.8554L10.5568 19.0401Z" fill="#FAFAFA"/>
</g>
<defs>
<clipPath id="clip0_291_251">
<rect width="28" height="28" fill="white" transform="matrix(-0.996145 -0.0877174 -0.0877174 0.996145 31.1741 3.28223)"/>
</clipPath>
</defs>
</svg>
